<svg width="54" height="29" viewBox="0 0 54 29" fill="none" xmlns="http://www.w3.org/2000/svg">
<path fill-rule="evenodd" clip-rule="evenodd" d="M17.4747 2.00688C16.643 1.25096 15.4676 0.899955 14.2886 1.16792C12.7406 1.51973 11.6595 2.8309 11.5298 4.33202L14.6447 2.45594C15.5753 1.89545 16.5745 1.787 17.4747 2.00688ZM19.7037 8.9302L15.8919 24.2868L16.0697 25.069C16.8339 28.4315 21.3268 29.1091 23.0487 26.1217L31.4871 11.4822L33.7476 24.8577C34.3255 28.2772 38.8122 29.1886 40.6786 26.2658L52.5313 7.70402C53.5895 6.04684 53.1039 3.8456 51.4467 2.7874C49.7896 1.7292 47.5883 2.21477 46.5301 3.87195L39.3283 15.1503L37.484 4.23769C37.1758 2.41419 35.5965 1.07939 33.7471 1.07939H31.4547C30.0998 1.07939 28.8479 1.80275 28.1713 2.97664L21.1278 15.1962L19.7037 8.9302Z" fill="white"/>
<path d="M4.21139 10.6828L14.5884 4.43286C14.7637 4.32728 14.9791 4.48634 14.9298 4.68495L10.1941 23.764" stroke="url(#paint0_linear_1_523)" stroke-width="7.12031" stroke-linecap="round"/>
<defs>
<linearGradient id="paint0_linear_1_523" x1="11.1883" y1="27.3346" x2="16.269" y2="5.37051" gradientUnits="userSpaceOnUse">
<stop stop-color="#2C4AE7"/>
<stop offset="1" stop-color="#53AFF8"/>
</linearGradient>
</defs>
</svg>
