<svg width="24" height="24" viewBox="0 0 24 24" fill="none" xmlns="http://www.w3.org/2000/svg">
<g clip-path="url(#clip0_5_5585)">
<path d="M18.375 0.75L17.3102 2.52469C16.521 3.83994 15.8251 5.20891 15.2274 6.62152L11.625 15.1561V15.75L13.125 16.5H16.144L17.48 15.0797C20.4954 11.8633 22.3881 7.75688 22.875 3.37501L18.375 0.75Z" fill="#F9D7CF"/>
<path d="M22.5695 5.28489L17.2507 2.62549C16.4859 3.90986 15.8099 5.24499 15.2272 6.62155L11.6248 15.1561V15.75L13.1248 16.5H16.1437L17.4797 15.0797C20.0438 12.3443 21.8048 8.95537 22.5695 5.28489Z" fill="#F4C36E"/>
<path d="M12.56 20.9379L12.2798 22.7778L13.3176 23.2118L14.434 21.7158L12.56 20.9379Z" fill="#F4C36E"/>
<path d="M9.51221 21.6203L10.5501 22.0543L11.6343 20.6015L9.78614 19.8214L9.51221 21.6203Z" fill="#F4C36E"/>
<path d="M6.74438 20.4627L7.78229 20.8968L8.82699 19.4968L7.00585 18.7458L6.74438 20.4627Z" fill="#F4C36E"/>
<path d="M3.97681 19.3053L5.01467 19.7393L6.03045 18.3782L4.23767 17.5924L3.97681 19.3053Z" fill="#F4C36E"/>
<path d="M1.20898 18.1478L2.24689 18.5818L3.28419 17.1918L1.46661 16.4561L1.20898 18.1478Z" fill="#F4C36E"/>
<path d="M12 14.25V14.422C12 14.6883 12.0945 14.946 12.2666 15.1492C12.4387 15.3524 12.6774 15.4879 12.9401 15.5317L16.5 16.125L16.875 16.5L16.2088 20.164C16.1542 20.4642 16.0094 20.7406 15.7937 20.9563L15.3353 21.4147C15.1252 21.6248 14.8573 21.7678 14.5658 21.8255C14.2742 21.8832 13.9721 21.8529 13.6977 21.7386L1.125 16.5V16.4143C1.125 16.0069 1.25773 15.6105 1.5031 15.2852C1.74846 14.9599 2.09312 14.7234 2.4849 14.6115L2.4875 14.6107C3.32508 14.3714 4.19192 14.25 5.06302 14.25H12Z" fill="#4EB586"/>
<path d="M17.8916 17.9778L18.1121 17.2608L21.7692 18.3855L21.5487 19.1025L17.8916 17.9778Z" fill="#DFDFDF"/>
<path d="M10.6402 18.8617L13.4848 19.9558C13.5819 19.9931 13.6858 20.0099 13.7898 20.0049C13.8938 19.9999 13.9956 19.9734 14.0888 19.9269C14.1819 19.8804 14.2644 19.8151 14.3309 19.735C14.3974 19.6549 14.4465 19.5619 14.4751 19.4618L14.7511 18.496C14.7814 18.3899 14.7879 18.2784 14.7702 18.1695C14.7525 18.0606 14.7109 17.9569 14.6486 17.8659C14.5862 17.7749 14.5045 17.6988 14.4093 17.643C14.3141 17.5871 14.2077 17.553 14.0978 17.543L11.1621 17.2762C10.9773 17.2593 10.7927 17.3117 10.6442 17.4231L10.4594 17.5617C10.3522 17.6421 10.2686 17.7497 10.2171 17.8734C10.1656 17.997 10.1481 18.1323 10.1666 18.265C10.185 18.3977 10.2387 18.523 10.322 18.6279C10.4053 18.7329 10.5151 18.8136 10.6402 18.8617Z" fill="#F4C36E"/>
<path d="M18.6418 19.8236L18.8623 19.1067L22.6132 20.2602L22.3927 20.9771L18.6418 19.8236Z" fill="#DFDFDF"/>
<path d="M19.0171 21.554L19.2376 20.837L23.3636 22.1059L23.1431 22.8228L19.0171 21.554Z" fill="#DFDFDF"/>
<path d="M7.5 13.875C11.0208 13.875 13.875 11.0208 13.875 7.5C13.875 3.97918 11.0208 1.125 7.5 1.125C3.97918 1.125 1.125 3.97918 1.125 7.5C1.125 11.0208 3.97918 13.875 7.5 13.875Z" fill="#DFDFDF"/>
<path d="M1.58006 13.7727C1.19906 13.4129 0.851376 13.0193 0.54126 12.5969L1.14597 12.1532C1.42927 12.5391 1.7469 12.8987 2.09496 13.2274L1.58006 13.7727Z" fill="#DFDFDF"/>
<path d="M14.6881 4.27861C14.5781 4.03393 14.4558 3.79502 14.3215 3.56281L14.9707 3.18726C15.1178 3.44165 15.2518 3.70339 15.3722 3.97145L14.6881 4.27861Z" fill="#DFDFDF"/>
<path d="M13.9433 2.97131C13.4496 2.26977 12.8449 1.65329 12.1531 1.14609L12.5967 0.541382C13.3541 1.09662 14.016 1.77149 14.5565 2.5395L13.9433 2.97131Z" fill="#DFDFDF"/>
<path d="M11.9374 7.87501L13.4766 9.72207C14.0076 8.28829 14.0076 6.71172 13.4766 5.27794L11.9374 7.12501H9.87172L8.61904 5.2694L9.26875 3.26776L11.3635 2.42934C10.2542 1.58138 8.89617 1.12293 7.49988 1.12501C7.45078 1.12501 7.40187 1.12576 7.35305 1.12687L8.55544 3.03602L7.91296 5.01538L5.69308 5.72384L4.00363 4.49581L3.85536 2.26935C2.68009 3.08886 1.8145 4.27973 1.39773 5.65055L3.56293 5.10271L5.24988 6.32891V8.67187L3.58382 9.87747L1.38965 9.32231C1.8054 10.712 2.68187 11.9189 3.87481 12.7441L4.02536 10.4837L5.68969 9.27934L7.92213 10.0134L8.56635 11.9935L7.3823 13.8735C7.42144 13.8742 7.46057 13.875 7.49988 13.875C8.88678 13.8771 10.2362 13.4248 11.3417 12.5874L9.27975 11.7621L8.62817 9.75936L9.87646 7.87501H11.9374Z" fill="#434370"/>
<path d="M3.76001 14.341L4.51921 16.6186L5.23076 16.3815L4.52552 14.2657C4.26933 14.2805 4.01416 14.3056 3.76001 14.341Z" fill="#7FDBAD"/>
<path d="M6.01901 16.6186L6.73057 16.3814L6.02009 14.25H5.22949L6.01901 16.6186Z" fill="#7FDBAD"/>
<path d="M7.51901 16.6186L8.23057 16.3814L7.52009 14.25H6.72949L7.51901 16.6186Z" fill="#7FDBAD"/>
<path d="M9.01901 16.6186L9.73057 16.3814L9.02009 14.25H8.22949L9.01901 16.6186Z" fill="#7FDBAD"/>
<path d="M10.519 16.6186L11.2306 16.3814L10.5201 14.25H9.72949L10.519 16.6186Z" fill="#7FDBAD"/>
<path d="M15.4758 6.0505L21.4091 9.01715C21.6265 8.49879 21.8224 7.97171 21.9966 7.4359L16.1978 4.5365C15.9443 5.03484 15.7036 5.53951 15.4758 6.0505Z" fill="#434370"/>
</g>
<defs>
<clipPath id="clip0_5_5585">
<rect width="24" height="24" fill="white"/>
</clipPath>
</defs>
</svg>
