<svg width="24" height="24" viewBox="0 0 24 24" fill="none" xmlns="http://www.w3.org/2000/svg">
<path d="M19.875 1.125H4.125C3.71079 1.125 3.375 1.46079 3.375 1.875V22.125C3.375 22.5392 3.71079 22.875 4.125 22.875H19.875C20.2892 22.875 20.625 22.5392 20.625 22.125V1.875C20.625 1.46079 20.2892 1.125 19.875 1.125Z" fill="#BEBEBE"/>
<path d="M4.875 2.625H19.125V21.375H4.875V2.625Z" fill="#EDEDED"/>
<path d="M18 22.875C20.6924 22.875 22.875 20.6924 22.875 18C22.875 15.3076 20.6924 13.125 18 13.125C15.3076 13.125 13.125 15.3076 13.125 18C13.125 20.6924 15.3076 22.875 18 22.875Z" fill="#DFDFDF"/>
<path d="M12.7725 17.7036L12.7501 17.625L10.8751 16.875L9.00006 17.625L8.97761 17.7036C8.77002 18.4301 8.81207 19.2053 9.09703 19.9051C9.38198 20.605 9.89339 21.189 10.5495 21.5639L10.8751 21.75L11.2007 21.5639C11.8567 21.189 12.3681 20.605 12.6531 19.9051C12.938 19.2053 12.9801 18.4301 12.7725 17.7036Z" fill="#F4C36E"/>
<path d="M9.375 4.125H14.625V4.875H9.375V4.125Z" fill="#BEBEBE"/>
<path d="M6 5.625H9V6.375H6V5.625Z" fill="#4EB586"/>
<path d="M11.25 5.625H12.75V6.375H11.25V5.625Z" fill="#4EB586"/>
<path d="M13.875 5.625H15.375V6.375H13.875V5.625Z" fill="#F9CD75"/>
<path d="M16.5 5.625H18V6.375H16.5V5.625Z" fill="#51517A"/>
<path d="M6 7.125H18V7.875H6V7.125Z" fill="#BEBEBE"/>
<path d="M6 9H9V9.75H6V9Z" fill="#4EB586"/>
<path d="M11.25 9H12.75V9.75H11.25V9Z" fill="#4EB586"/>
<path d="M13.875 9H15.375V9.75H13.875V9Z" fill="#F9CD75"/>
<path d="M16.5 9H18V9.75H16.5V9Z" fill="#51517A"/>
<path d="M6 10.875H8.25V11.625H6V10.875Z" fill="#4EB586"/>
<path d="M11.25 10.875H12.75V11.625H11.25V10.875Z" fill="#4EB586"/>
<path d="M13.875 10.875H15.375V11.625H13.875V10.875Z" fill="#F9CD75"/>
<path d="M16.5 10.875H18V11.625H16.5V10.875Z" fill="#51517A"/>
<path d="M6 12.75H7.875V13.5H6V12.75Z" fill="#4EB586"/>
<path d="M11.25 12.75H12.75V13.5H11.25V12.75Z" fill="#4EB586"/>
<path d="M6 14.625H8.25V15.375H6V14.625Z" fill="#4EB586"/>
<path d="M11.25 14.625H12.75V15.375H11.25V14.625Z" fill="#4EB586"/>
<path d="M6 16.5H7.875V17.25H6V16.5Z" fill="#4EB586"/>
<path d="M6 18.375H7.875V19.125H6V18.375Z" fill="#4EB586"/>
<path d="M21.5333 17.2457L22.8739 18.0899C22.8744 18.06 22.875 18.0301 22.875 18C22.8766 16.9394 22.5308 15.9075 21.8903 15.0621L21.3019 16.5322L19.6338 17.075L18.375 16.2411V14.5331L19.6992 13.4296C18.6028 13.0235 17.3972 13.0235 16.3008 13.4296L17.625 14.5331V16.2458L16.387 17.0815L14.7209 16.5407L14.1224 15.0455C13.474 15.8938 13.1234 16.9322 13.125 18C13.125 18.0375 13.1256 18.0749 13.1264 18.1123L14.4892 17.254L16.133 17.7876L16.6085 19.2774L15.588 20.6812L14.0001 20.787C14.6268 21.6857 15.5374 22.3476 16.5857 22.6664L16.1949 21.1219L17.2136 19.7206H18.7872L19.7898 21.1062L19.3935 22.6725C20.4563 22.3546 21.3791 21.6844 22.0102 20.7721L20.3961 20.6646L19.3947 19.2808L19.8878 17.781L21.5333 17.2457Z" fill="#434370"/>
</svg>
