<svg width="24" height="24" viewBox="0 0 24 24" fill="none" xmlns="http://www.w3.org/2000/svg">
<path d="M15.0283 22.5697L15.4637 23.1804C15.7807 22.9543 16.0849 22.7109 16.3751 22.4513L15.8749 21.8925C15.6054 22.1336 15.3227 22.3597 15.0283 22.5697Z" fill="#DFDFDF"/>
<path d="M16.3022 21.4861L16.8351 22.0139C17.8286 21.014 18.6096 19.8235 19.1311 18.514L18.4345 18.2361C17.9501 19.4521 17.2249 20.5576 16.3022 21.4861Z" fill="#DFDFDF"/>
<path d="M6.12483 5.42969L5.87489 4.72253C5.61255 4.81525 5.3508 4.91978 5.09692 5.03322L5.4028 5.71799C5.63846 5.61272 5.88135 5.51572 6.12483 5.42969Z" fill="#DFDFDF"/>
<path d="M4.68074 6.07724L4.31911 5.42017C2.98371 6.15814 1.82314 7.17537 0.916504 8.40252L1.52029 8.84742C2.36239 7.70757 3.44037 6.7627 4.68074 6.07724Z" fill="#DFDFDF"/>
<path d="M14.625 17.625C19.1813 17.625 22.875 13.9313 22.875 9.375C22.875 4.81865 19.1813 1.125 14.625 1.125C10.0687 1.125 6.375 4.81865 6.375 9.375C6.375 13.9313 10.0687 17.625 14.625 17.625Z" fill="#EDEDED"/>
<path d="M17.9203 8.69871L20.3187 7.91839L22.8731 9.52715C22.874 9.4765 22.875 9.42587 22.875 9.375C22.8777 7.58018 22.2924 5.83388 21.2087 4.4032L20.0873 7.20497L17.6663 7.99264L15 6.22636V3.72426L17.5006 1.64042C15.6451 0.953192 13.6049 0.953192 11.7494 1.64042L14.25 3.72426V6.23109L11.6219 8.00528L9.20131 7.21906L8.06297 4.37501C6.96561 5.81061 6.37232 7.56803 6.37501 9.375C6.37501 9.43852 6.37599 9.50182 6.37741 9.565L8.96964 7.93242L11.3685 8.71157L12.3681 11.8436L10.8806 13.89L7.85592 14.0914C8.91647 15.6124 10.4576 16.7325 12.2316 17.2719L11.4874 14.3307L12.9731 12.2868H16.2776L17.737 14.3035L16.9833 17.2824C18.7818 16.7443 20.3435 15.6101 21.4115 14.0663L18.3432 13.8619L16.8851 11.8469L17.9203 8.69871Z" fill="#2C2C51"/>
<path d="M9.375 22.875C13.9313 22.875 17.625 19.1813 17.625 14.625C17.625 10.0687 13.9313 6.375 9.375 6.375C4.81865 6.375 1.125 10.0687 1.125 14.625C1.125 19.1813 4.81865 22.875 9.375 22.875Z" fill="#DFDFDF"/>
<path d="M12.6703 13.9487L15.0687 13.1684L17.6231 14.7771C17.624 14.7265 17.625 14.6759 17.625 14.625C17.6277 12.8302 17.0424 11.0839 15.9587 9.6532L14.8373 12.455L12.4163 13.2426L9.75001 11.4764V8.97426L12.2506 6.89042C10.3951 6.20319 8.35488 6.20319 6.49941 6.89042L9.00001 8.97426V11.4811L6.3719 13.2553L3.95131 12.4691L2.81297 9.625C1.71561 11.0606 1.12232 12.818 1.12501 14.625C1.12501 14.6885 1.12599 14.7518 1.12741 14.815L3.71964 13.1824L6.11848 13.9616L7.11805 17.0936L5.63056 19.14L2.60592 19.3414C3.66647 20.8624 5.2076 21.9825 6.9816 22.5219L6.23741 19.5807L7.72309 17.5368H11.0276L12.487 19.5535L11.7333 22.5324C13.5318 21.9943 15.0935 20.8601 16.1615 19.3163L13.0932 19.1119L11.6351 17.0969L12.6703 13.9487Z" fill="#434370"/>
</svg>
